<?xml version="1.0" standalone="no"?>
<svg
  width="600"
  height="600"
  viewBox="0 0 600 600"
  xmlns="http://www.w3.org/2000/svg"
>
  <g transform="translate(300,300)">
    <path d="M137.7,-153.2C164.5,-141.7,162.5,-85,168.7,-32.4C174.9,20.3,189.2,68.9,175.3,109C161.4,149.1,119.4,180.7,72.5,196.7C25.7,212.7,-26,213,-54,186.4C-82.1,159.7,-86.5,106.1,-109.7,64.2C-132.8,22.3,-174.7,-8,-178.8,-39.6C-182.8,-71.2,-148.9,-104.1,-112.8,-113.9C-76.7,-123.7,-38.4,-110.4,8.6,-120.6C55.5,-130.8,111,-164.6,137.7,-153.2Z" fill="#fa8231" />
  </g>
</svg>
  